# 3ds Max Wavefront OBJ Exporter v0.97b - (c)2007 guruware
# File Created: 25.07.2013 16:18:40

mtllib Grenade_model_final.mtl

#
# object GeoSphere001
#

v  3.2614 29.5900 10.0376
v  10.5542 29.5900 0.0000
v  3.2614 29.5900 -10.0376
v  -8.5385 29.5900 -6.2036
v  -8.5385 29.5900 6.2036
v  20.4432 24.8833 -7.9664
v  26.5084 16.0588 -5.8305
v  28.9584 7.8529 -14.1530
v  22.4090 7.8529 -23.1675
v  13.7367 16.0588 -23.4093
v  13.8938 24.8833 -16.9809
v  -1.2592 24.8833 -21.9044
v  2.6464 16.0588 -27.0128
v  -4.5117 7.8529 -31.9146
v  -15.1089 7.8529 -28.4714
v  -18.0187 16.0588 -20.2982
v  -11.8564 24.8833 -18.4611
v  -21.2214 24.8833 -5.5713
v  -24.8729 16.0588 -10.8643
v  -31.7468 7.8529 -5.5713
v  -31.7468 7.8529 5.5713
v  -24.8729 16.0588 10.8643
v  -21.2214 24.8833 5.5713
v  -11.8564 24.8833 18.4612
v  -18.0187 16.0588 20.2983
v  -15.1089 7.8529 28.4714
v  -4.5117 7.8529 31.9146
v  2.6464 16.0588 27.0128
v  -1.2592 24.8833 21.9044
v  13.8938 24.8833 16.9809
v  13.7367 16.0588 23.4093
v  22.4090 7.8529 23.1675
v  28.9584 7.8529 14.1530
v  26.5084 16.0588 5.8305
v  20.4432 24.8833 7.9664
v  25.4440 13.4085 -0.0000
v  26.6882 0.0000 8.6715
v  26.6882 0.0000 -8.6715
v  31.7468 -7.8529 5.5713
v  24.8729 -16.0588 10.8643
v  21.2214 -24.8833 5.5713
v  21.2214 -24.8833 -5.5713
v  24.8729 -16.0588 -10.8643
v  31.7468 -7.8529 -5.5713
v  7.8626 13.4085 -24.1987
v  16.4942 0.0000 -22.7023
v  -0.0000 0.0000 -28.0616
v  15.1089 -7.8529 -28.4714
v  18.0187 -16.0588 -20.2982
v  11.8564 -24.8833 -18.4611
v  1.2592 -24.8833 -21.9044
v  -2.6464 -16.0588 -27.0128
v  4.5117 -7.8529 -31.9146
v  -20.5847 13.4085 -14.9556
v  -16.4942 0.0000 -22.7023
v  -26.6882 0.0000 -8.6715
v  -22.4090 -7.8529 -23.1675
v  -13.7367 -16.0588 -23.4093
v  -13.8938 -24.8833 -16.9809
v  -20.4432 -24.8833 -7.9664
v  -26.5084 -16.0588 -5.8305
v  -28.9584 -7.8529 -14.1530
v  -20.5847 13.4085 14.9556
v  -26.6882 0.0000 8.6715
v  -16.4942 0.0000 22.7023
v  7.8626 13.4085 24.1987
v  0.0000 0.0000 28.0616
v  16.4942 0.0000 22.7023
v  4.5117 -7.8529 31.9146
v  -2.6464 -16.0588 27.0128
v  1.2592 -24.8833 21.9044
v  11.8564 -24.8833 18.4612
v  18.0187 -16.0588 20.2983
v  15.1089 -7.8529 28.4714
v  20.5847 -13.4085 -14.9556
v  -7.8626 -13.4085 -24.1987
v  -25.4440 -13.4085 0.0000
v  -7.8626 -13.4085 24.1987
v  20.5847 -13.4085 14.9556
v  8.5385 -29.5895 6.2036
v  -3.2614 -29.5895 10.0376
v  -10.5542 -29.5895 0.0000
v  -3.2614 -29.5895 -10.0376
v  8.5385 -29.5895 -6.2036
v  -13.7367 -16.0588 23.4093
v  -22.4090 -7.8529 23.1675
v  -28.9584 -7.8529 14.1530
v  -26.5084 -16.0588 5.8305
v  -20.4432 -24.8833 7.9664
v  -13.8938 -24.8833 16.9809
v  4.5589 23.8706 14.0308
v  14.7529 23.8706 -0.0000
v  4.5589 23.8706 -14.0308
v  -11.9353 23.8706 -8.6715
v  -11.9353 23.8706 8.6715
v  11.9353 -23.8706 8.6715
v  11.9353 -23.8706 -8.6715
v  -4.5589 -23.8706 -14.0308
v  -14.7529 -23.8706 0.0000
v  -4.5589 -23.8706 14.0308
# 100 vertices

vn 0.0000 1.0000 -0.0000
vn 0.8246 0.5050 -0.2552
vn 0.6202 0.6421 -0.4506
vn 0.6285 0.4507 -0.6340
vn 0.6882 0.5257 -0.5000
vn 0.0121 0.5050 -0.8631
vn -0.2369 0.6421 -0.7291
vn -0.4087 0.4507 -0.7936
vn -0.2629 0.5257 -0.8090
vn -0.8171 0.5050 -0.2782
vn -0.7666 0.6421 -0.0000
vn -0.8811 0.4507 0.1435
vn -0.8507 0.5257 -0.0000
vn -0.5171 0.5050 0.6911
vn -0.2369 0.6421 0.7291
vn -0.1358 0.4507 0.8823
vn -0.2629 0.5257 0.8090
vn 0.4975 0.5050 0.7053
vn 0.6202 0.6421 0.4506
vn 0.7972 0.4507 0.4018
vn 0.6882 0.5257 0.5000
vn 0.9957 0.0924 -0.0000
vn 0.8171 -0.5050 0.2782
vn 0.9240 -0.3823 -0.0000
vn 0.8008 -0.5835 -0.1354
vn 0.8507 -0.5257 -0.0000
vn 0.3077 0.0924 -0.9470
vn 0.5171 -0.5050 -0.6911
vn 0.2855 -0.3823 -0.8788
vn 0.1187 -0.5835 -0.8034
vn 0.2629 -0.5257 -0.8090
vn -0.8056 0.0924 -0.5853
vn -0.4975 -0.5050 -0.7053
vn -0.7475 -0.3823 -0.5431
vn -0.7274 -0.5835 -0.3612
vn -0.6882 -0.5257 -0.5000
vn -0.8056 0.0924 0.5853
vn 0.3077 0.0924 0.9470
vn -0.0121 -0.5050 0.8631
vn 0.2855 -0.3823 0.8788
vn 0.3762 -0.5835 0.7197
vn 0.2629 -0.5257 0.8090
vn 0.8056 -0.0924 -0.5853
vn -0.3077 -0.0924 -0.9470
vn -0.9957 -0.0924 -0.0000
vn -0.3077 -0.0924 0.9470
vn 0.8056 -0.0924 0.5853
vn 0.0000 -1.0000 -0.0000
vn -0.6202 -0.6421 0.4506
vn -0.7475 -0.3823 0.5431
vn 0.6956 0.5106 0.5054
vn 0.6956 0.5106 -0.5054
vn -0.2657 0.5106 -0.8177
vn -0.8598 0.5106 0.0000
vn -0.8598 0.5106 -0.0000
vn -0.2657 0.5106 0.8177
vn 0.6372 0.6511 0.4123
vn 0.6361 0.5645 0.5261
vn 0.9583 -0.0871 0.2721
vn 0.9743 0.0756 0.2122
vn 0.6801 -0.5415 -0.4941
vn 0.1417 -0.0192 -0.9897
vn -0.0164 -0.0468 -0.9988
vn -0.2974 0.6155 -0.7299
vn -0.1561 0.5834 -0.7970
vn -0.0877 0.9941 0.0637
vn 0.5890 0.6511 -0.4786
vn 0.6969 0.5645 -0.4424
vn 0.5550 -0.0871 -0.8273
vn 0.5029 0.0756 -0.8610
vn -0.2598 -0.5415 -0.7995
vn -0.8975 -0.0192 -0.4406
vn -0.9550 -0.0468 -0.2930
vn -0.7861 0.6155 0.0573
vn -0.8063 0.5834 -0.0978
vn 0.0335 0.9941 0.1031
vn -0.2732 0.6511 -0.7081
vn -0.2054 0.5645 -0.7995
vn -0.6153 -0.0871 -0.7834
vn -0.6635 0.0756 -0.7444
vn -0.8407 -0.5415 -0.0000
vn -0.8407 -0.5415 0.0000
vn -0.6964 -0.0192 0.7174
vn -0.5738 -0.0468 0.8177
vn -0.1884 0.6155 0.7653
vn -0.3422 0.5834 0.7366
vn 0.1084 0.9941 -0.0000
vn -0.7578 0.6511 0.0410
vn -0.8238 0.5645 -0.0517
vn -0.9352 -0.0871 0.3431
vn -0.9130 0.0756 0.4010
vn -0.2598 -0.5415 0.7995
vn 0.4671 -0.0192 0.8840
vn 0.6004 -0.0468 0.7984
vn 0.6697 0.6155 0.4157
vn 0.5948 0.5834 0.5531
vn 0.0335 0.9941 -0.1031
vn -0.1952 0.6511 0.7334
vn -0.3038 0.5645 0.7675
vn 0.0373 -0.0871 0.9955
vn 0.0992 0.0756 0.9922
vn 0.6801 -0.5415 0.4941
vn 0.9851 -0.0192 -0.1711
vn 0.9448 -0.0468 -0.3243
vn 0.6023 0.6155 -0.5084
vn 0.7098 0.5834 -0.3948
vn -0.0877 0.9941 -0.0637
vn 0.6964 0.0192 0.7174
vn 0.5738 0.0468 0.8177
vn 0.1884 -0.6155 0.7653
vn 0.3422 -0.5834 0.7366
vn -0.1084 -0.9941 -0.0000
vn 0.2732 -0.6511 -0.7081
vn 0.2054 -0.5645 -0.7995
vn 0.6153 0.0871 -0.7834
vn 0.6635 -0.0756 -0.7444
vn 0.8407 0.5415 -0.0000
vn 0.8975 0.0192 -0.4406
vn 0.9550 0.0468 -0.2930
vn 0.7861 -0.6155 0.0573
vn 0.8063 -0.5834 -0.0978
vn -0.0335 -0.9941 0.1031
vn -0.5890 -0.6511 -0.4786
vn -0.6969 -0.5645 -0.4424
vn -0.5550 0.0871 -0.8273
vn -0.5029 -0.0756 -0.8610
vn 0.2598 0.5415 -0.7995
vn -0.1417 0.0192 -0.9897
vn 0.0164 0.0468 -0.9988
vn 0.2974 -0.6155 -0.7299
vn 0.1561 -0.5834 -0.7970
vn 0.0877 -0.9941 0.0637
vn -0.6372 -0.6511 0.4123
vn -0.6361 -0.5645 0.5261
vn -0.9583 0.0871 0.2721
vn -0.9743 -0.0756 0.2122
vn -0.6801 0.5415 -0.4941
vn -0.4671 0.0192 0.8840
vn -0.6004 0.0468 0.7984
vn -0.6697 -0.6155 0.4157
vn -0.5948 -0.5834 0.5531
vn -0.0335 -0.9941 -0.1031
vn 0.7578 -0.6511 0.0410
vn 0.8238 -0.5645 -0.0517
vn 0.9352 0.0871 0.3431
vn 0.9130 -0.0756 0.4010
vn 0.2598 0.5415 0.7995
vn 0.2657 -0.5107 0.8177
vn -0.6956 -0.5107 0.5054
vn -0.6956 -0.5107 -0.5054
vn 0.2657 -0.5107 -0.8177
vn 0.8598 -0.5107 -0.0000
vn 0.1952 -0.6511 0.7334
vn 0.3038 -0.5645 0.7675
vn -0.0373 0.0871 0.9955
vn -0.0992 -0.0756 0.9922
vn -0.6801 0.5415 0.4941
vn -0.9851 0.0192 -0.1711
vn -0.9448 0.0468 -0.3243
vn -0.6023 -0.6155 -0.5084
vn -0.7098 -0.5834 -0.3948
vn 0.0877 -0.9941 -0.0637
# 162 vertex normals

vt 0.6703 0.1672 0.0000
vt 0.6907 0.0903 0.0000
vt 0.7907 0.0838 0.0000
vt 0.8321 0.1567 0.0000
vt 0.7576 0.2082 0.0000
vt 0.3417 0.3206 0.0000
vt 0.3244 0.2642 0.0000
vt 0.3921 0.2118 0.0000
vt 0.4655 0.2118 0.0000
vt 0.4674 0.2642 0.0000
vt 0.4151 0.3206 0.0000
vt 0.4388 0.8382 0.0000
vt 0.3729 0.8705 0.0000
vt 0.3048 0.8350 0.0000
vt 0.2981 0.7706 0.0000
vt 0.3598 0.7449 0.0000
vt 0.4321 0.7737 0.0000
vt 0.2315 0.6900 0.0000
vt 0.1885 0.6336 0.0000
vt 0.2315 0.5812 0.0000
vt 0.3222 0.5812 0.0000
vt 0.3653 0.6336 0.0000
vt 0.3222 0.6900 0.0000
vt 0.9471 0.9526 0.0000
vt 0.8748 0.9813 0.0000
vt 0.8131 0.9555 0.0000
vt 0.8199 0.8911 0.0000
vt 0.8881 0.8557 0.0000
vt 0.9539 0.8882 0.0000
vt 0.1387 0.3206 0.0000
vt 0.0863 0.2642 0.0000
vt 0.0883 0.2118 0.0000
vt 0.1617 0.2118 0.0000
vt 0.2294 0.2642 0.0000
vt 0.2120 0.3206 0.0000
vt 0.2769 0.2473 0.0000
vt 0.2063 0.1616 0.0000
vt 0.3475 0.1616 0.0000
vt 0.2315 0.1115 0.0000
vt 0.1885 0.0591 0.0000
vt 0.2315 0.0027 0.0000
vt 0.3222 0.0027 0.0000
vt 0.3653 0.0591 0.0000
vt 0.3222 0.1115 0.0000
vt 0.3556 0.9048 0.0000
vt 0.2572 0.9704 0.0000
vt 0.2468 0.8701 0.0000
vt 0.1954 0.9697 0.0000
vt 0.1337 0.9954 0.0000
vt 0.0614 0.9666 0.0000
vt 0.0547 0.9021 0.0000
vt 0.1206 0.8697 0.0000
vt 0.1887 0.9053 0.0000
vt 0.1552 0.6167 0.0000
vt 0.0921 0.5311 0.0000
vt 0.2063 0.5311 0.0000
vt 0.0883 0.4809 0.0000
vt 0.0863 0.4285 0.0000
vt 0.1387 0.3721 0.0000
vt 0.2120 0.3721 0.0000
vt 0.2294 0.4285 0.0000
vt 0.1617 0.4809 0.0000
vt 0.3986 0.6167 0.0000
vt 0.3475 0.5311 0.0000
vt 0.4617 0.5311 0.0000
vt 0.8709 0.8213 0.0000
vt 0.7619 0.8558 0.0000
vt 0.7725 0.7555 0.0000
vt 0.7040 0.8206 0.0000
vt 0.6358 0.8560 0.0000
vt 0.5699 0.8234 0.0000
vt 0.5767 0.7590 0.0000
vt 0.6491 0.7303 0.0000
vt 0.7108 0.7562 0.0000
vt 0.3986 0.0760 0.0000
vt 0.4617 0.1616 0.0000
vt 0.1379 0.8354 0.0000
vt 0.2363 0.7698 0.0000
vt 0.2769 0.4454 0.0000
vt 0.6530 0.8903 0.0000
vt 0.7514 0.9561 0.0000
vt 0.1552 0.0760 0.0000
vt 0.0921 0.1616 0.0000
vt 0.7529 0.4703 0.0000
vt 0.8402 0.5114 0.0000
vt 0.8198 0.5883 0.0000
vt 0.7198 0.5948 0.0000
vt 0.6784 0.5219 0.0000
vt 0.4674 0.4285 0.0000
vt 0.4655 0.4809 0.0000
vt 0.3921 0.4809 0.0000
vt 0.3244 0.4285 0.0000
vt 0.3417 0.3721 0.0000
vt 0.4151 0.3721 0.0000
vt 0.6392 0.1775 0.0000
vt 0.6678 0.0700 0.0000
vt 0.8076 0.0609 0.0000
vt 0.8654 0.1628 0.0000
vt 0.7614 0.2348 0.0000
vt 0.2769 0.3141 0.0000
vt 0.3799 0.9380 0.0000
vt 0.3218 0.9987 0.0000
vt 0.4346 0.8745 0.0000
vt 0.4484 0.9303 0.0000
vt 0.6846 0.0094 0.0000
vt 0.7744 0.0036 0.0000
vt 0.8506 0.0027 0.0000
vt 0.8959 0.0162 0.0000
vt 0.8866 0.0563 0.0000
vt 0.1117 0.6336 0.0000
vt 0.0451 0.5812 0.0000
vt 0.2063 0.6835 0.0000
vt 0.1266 0.6900 0.0000
vt 0.9237 0.1217 0.0000
vt 0.9503 0.1784 0.0000
vt 0.9491 0.2161 0.0000
vt 0.8975 0.2205 0.0000
vt 0.7708 0.3027 0.0000
vt 0.8306 0.2668 0.0000
vt 0.8188 0.3064 0.0000
vt 0.3475 0.6835 0.0000
vt 0.4421 0.6336 0.0000
vt 0.4272 0.6900 0.0000
vt 0.5087 0.5812 0.0000
vt 0.5602 0.2038 0.0000
vt 0.6237 0.2383 0.0000
vt 0.5718 0.2407 0.0000
vt 0.7022 0.2751 0.0000
vt 0.9498 0.8518 0.0000
vt 0.8952 0.7883 0.0000
vt 0.9637 0.7961 0.0000
vt 0.8372 0.7274 0.0000
vt 0.5706 0.1447 0.0000
vt 0.5890 0.0756 0.0000
vt 0.7397 0.3758 0.0000
vt 0.7491 0.4437 0.0000
vt 0.6799 0.4118 0.0000
vt 0.6917 0.3721 0.0000
vt 0.6451 0.5157 0.0000
vt 0.6131 0.4580 0.0000
vt 0.5602 0.5001 0.0000
vt 0.5614 0.4624 0.0000
vt 0.4421 0.0591 0.0000
vt 0.5087 0.1115 0.0000
vt 0.3475 0.0092 0.0000
vt 0.4272 0.0027 0.0000
vt 0.7029 0.6176 0.0000
vt 0.6239 0.6223 0.0000
vt 0.5868 0.5568 0.0000
vt 0.6599 0.6758 0.0000
vt 0.6146 0.6623 0.0000
vt 0.1136 0.8023 0.0000
vt 0.1718 0.7416 0.0000
vt 0.0589 0.8658 0.0000
vt 0.0451 0.8100 0.0000
vt 0.8427 0.6085 0.0000
vt 0.8259 0.6691 0.0000
vt 0.7361 0.6749 0.0000
vt 0.2769 0.3786 0.0000
vt 0.9503 0.4747 0.0000
vt 0.8713 0.5010 0.0000
vt 0.8868 0.4402 0.0000
vt 0.9387 0.4379 0.0000
vt 0.8083 0.4034 0.0000
vt 0.2063 0.0092 0.0000
vt 0.1117 0.0591 0.0000
vt 0.1266 0.0027 0.0000
vt 0.0451 0.1115 0.0000
vt 0.5741 0.8598 0.0000
vt 0.6287 0.9234 0.0000
vt 0.5602 0.9156 0.0000
vt 0.6867 0.9843 0.0000
vt 0.9399 0.5338 0.0000
vt 0.9215 0.6029 0.0000
# 174 texture coords

g GeoSphere001
usemtl Material__25
s off
f 1/1/1 2/2/1 3/3/1 
f 1/1/1 3/3/1 4/4/1 
f 1/1/1 4/4/1 5/5/1 
f 6/6/2 7/7/2 8/8/2 
f 8/8/3 9/9/3 10/10/3 
f 8/8/4 10/10/4 11/11/4 
f 6/6/5 8/8/5 11/11/5 
f 12/12/6 13/13/6 14/14/6 
f 14/14/7 15/15/7 16/16/7 
f 14/14/8 16/16/8 17/17/8 
f 12/12/9 14/14/9 17/17/9 
f 18/18/10 19/19/10 20/20/10 
f 20/20/11 21/21/11 22/22/11 
f 20/20/12 22/22/12 23/23/12 
f 18/18/13 20/20/13 23/23/13 
f 24/24/14 25/25/14 26/26/14 
f 26/26/15 27/27/15 28/28/15 
f 26/26/16 28/28/16 29/29/16 
f 24/24/17 26/26/17 29/29/17 
f 30/30/18 31/31/18 32/32/18 
f 32/32/19 33/33/19 34/34/19 
f 32/32/20 34/34/20 35/35/20 
f 30/30/21 32/32/21 35/35/21 
f 36/36/22 37/37/22 38/38/22 
f 39/39/23 40/40/23 41/41/23 
f 41/41/24 42/42/24 43/43/24 
f 41/41/25 43/43/25 44/44/25 
f 39/39/26 41/41/26 44/44/26 
f 45/45/27 46/46/27 47/47/27 
f 48/48/28 49/49/28 50/50/28 
f 50/50/29 51/51/29 52/52/29 
f 50/50/30 52/52/30 53/53/30 
f 48/48/31 50/50/31 53/53/31 
f 54/54/32 55/55/32 56/56/32 
f 57/57/33 58/58/33 59/59/33 
f 59/59/34 60/60/34 61/61/34 
f 59/59/35 61/61/35 62/62/35 
f 57/57/36 59/59/36 62/62/36 
f 63/63/37 64/64/37 65/65/37 
f 66/66/38 67/67/38 68/68/38 
f 69/69/39 70/70/39 71/71/39 
f 71/71/40 72/72/40 73/73/40 
f 71/71/41 73/73/41 74/74/41 
f 69/69/42 71/71/42 74/74/42 
f 75/75/43 46/76/43 38/38/43 
f 76/77/44 55/78/44 47/47/44 
f 77/79/45 64/64/45 56/56/45 
f 78/80/46 67/67/46 65/81/46 
f 79/82/47 37/37/47 68/83/47 
f 80/84/48 81/85/48 82/86/48 
f 80/84/48 82/86/48 83/87/48 
f 80/84/48 83/87/48 84/88/48 
f 85/89/49 86/90/49 87/91/49 
f 85/89/49 87/91/49 88/92/49 
f 85/89/50 88/92/50 89/93/50 
f 90/94/50 85/89/50 89/93/50 
f 91/95/51 92/96/51 2/2/51 
f 2/2/51 1/1/51 91/95/51 
f 92/96/52 93/97/52 3/3/52 
f 3/3/52 2/2/52 92/96/52 
f 93/97/53 94/98/53 4/4/53 
f 4/4/53 3/3/53 93/97/53 
f 94/98/54 95/99/54 5/5/54 
f 5/5/55 4/4/55 94/98/55 
f 95/99/56 91/95/56 1/1/56 
f 1/1/56 5/5/56 95/99/56 
f 92/100/57 36/36/57 7/7/57 
f 7/7/58 6/6/58 92/100/58 
f 36/36/59 38/38/59 8/8/59 
f 8/8/60 7/7/60 36/36/60 
f 38/38/61 46/76/61 9/9/61 
f 9/9/61 8/8/61 38/38/61 
f 46/46/62 45/45/62 10/101/62 
f 10/101/63 9/102/63 46/46/63 
f 45/45/64 93/103/64 11/104/64 
f 11/104/65 10/101/65 45/45/65 
f 93/97/66 92/96/66 6/105/66 
f 6/105/66 11/106/66 93/97/66 
f 93/97/67 45/107/67 13/108/67 
f 13/108/68 12/109/68 93/97/68 
f 45/45/69 47/47/69 14/14/69 
f 14/14/70 13/13/70 45/45/70 
f 47/47/71 55/78/71 15/15/71 
f 15/15/71 14/14/71 47/47/71 
f 55/55/72 54/54/72 16/110/72 
f 16/110/73 15/111/73 55/55/73 
f 54/54/74 94/112/74 17/113/74 
f 17/113/75 16/110/75 54/54/75 
f 94/98/76 93/97/76 12/109/76 
f 12/109/76 17/114/76 94/98/76 
f 94/98/77 54/115/77 19/116/77 
f 19/116/78 18/117/78 94/98/78 
f 54/54/79 56/56/79 20/20/79 
f 20/20/80 19/19/80 54/54/80 
f 56/56/81 64/64/81 21/21/81 
f 21/21/82 20/20/82 56/56/82 
f 64/64/83 63/63/83 22/22/83 
f 22/22/84 21/21/84 64/64/84 
f 63/118/85 95/99/85 23/119/85 
f 23/119/86 22/120/86 63/118/86 
f 95/99/87 94/98/87 18/117/87 
f 18/117/87 23/119/87 95/99/87 
f 95/121/88 63/63/88 25/122/88 
f 25/122/89 24/123/89 95/121/89 
f 63/63/90 65/65/90 26/124/90 
f 26/124/91 25/122/91 63/63/91 
f 65/81/92 67/67/92 27/27/92 
f 27/27/92 26/26/92 65/81/92 
f 67/67/93 66/66/93 28/28/93 
f 28/28/94 27/27/94 67/67/94 
f 66/125/95 91/95/95 29/126/95 
f 29/126/96 28/127/96 66/125/96 
f 91/95/97 95/99/97 24/128/97 
f 24/128/97 29/126/97 91/95/97 
f 91/129/98 66/66/98 31/130/98 
f 31/130/99 30/131/99 91/129/99 
f 66/66/100 68/68/100 32/132/100 
f 32/132/101 31/130/101 66/66/101 
f 68/83/102 37/37/102 33/33/102 
f 33/33/102 32/32/102 68/83/102 
f 37/37/103 36/36/103 34/34/103 
f 34/34/104 33/33/104 37/37/104 
f 36/36/105 92/100/105 35/35/105 
f 35/35/106 34/34/106 36/36/106 
f 92/96/107 91/95/107 30/133/107 
f 30/133/107 35/134/107 92/96/107 
f 37/37/108 79/82/108 40/40/108 
f 40/40/109 39/39/109 37/37/109 
f 79/135/110 96/136/110 41/137/110 
f 41/137/111 40/138/111 79/135/111 
f 96/136/112 97/139/112 42/140/112 
f 42/140/112 41/137/112 96/136/112 
f 97/139/113 75/141/113 43/142/113 
f 43/142/114 42/140/114 97/139/114 
f 75/75/115 38/38/115 44/44/115 
f 44/44/116 43/43/116 75/75/116 
f 38/38/117 37/37/117 39/39/117 
f 39/39/117 44/44/117 38/38/117 
f 46/76/118 75/75/118 49/143/118 
f 49/143/119 48/144/119 46/76/119 
f 75/75/120 97/145/120 50/146/120 
f 50/146/121 49/143/121 75/75/121 
f 97/139/122 98/147/122 51/148/122 
f 51/148/122 50/149/122 97/139/122 
f 98/147/123 76/150/123 52/151/123 
f 52/151/124 51/148/124 98/147/124 
f 76/77/125 47/47/125 53/53/125 
f 53/53/126 52/52/126 76/77/126 
f 47/47/127 46/46/127 48/48/127 
f 48/48/127 53/53/127 47/47/127 
f 55/78/128 76/77/128 58/152/128 
f 58/152/129 57/153/129 55/78/129 
f 76/77/130 98/154/130 59/155/130 
f 59/155/131 58/152/131 76/77/131 
f 98/147/132 99/156/132 60/157/132 
f 60/157/132 59/158/132 98/147/132 
f 99/159/133 77/79/133 61/61/133 
f 61/61/134 60/60/134 99/159/134 
f 77/79/135 56/56/135 62/62/135 
f 62/62/136 61/61/136 77/79/136 
f 56/56/137 55/55/137 57/57/137 
f 57/57/137 62/62/137 56/56/137 
f 67/67/138 78/80/138 70/70/138 
f 70/70/139 69/69/139 67/67/139 
f 78/160/140 100/161/140 71/162/140 
f 71/162/141 70/163/141 78/160/141 
f 100/161/142 96/136/142 72/164/142 
f 72/164/142 71/162/142 100/161/142 
f 96/165/143 79/82/143 73/166/143 
f 73/166/144 72/167/144 96/165/144 
f 79/82/145 68/83/145 74/168/145 
f 74/168/146 73/166/146 79/82/146 
f 68/68/147 67/67/147 69/69/147 
f 69/69/147 74/74/147 68/68/147 
f 96/136/148 100/161/148 81/85/148 
f 81/85/148 80/84/148 96/136/148 
f 100/161/149 99/156/149 82/86/149 
f 82/86/149 81/85/149 100/161/149 
f 99/156/150 98/147/150 83/87/150 
f 83/87/150 82/86/150 99/156/150 
f 98/147/151 97/139/151 84/88/151 
f 84/88/151 83/87/151 98/147/151 
f 97/139/152 96/136/152 80/84/152 
f 80/84/152 84/88/152 97/139/152 
f 100/169/153 78/80/153 85/170/153 
f 85/170/154 90/171/154 100/169/154 
f 78/80/155 65/81/155 86/172/155 
f 86/172/156 85/170/156 78/80/156 
f 65/65/157 64/64/157 87/91/157 
f 87/91/157 86/90/157 65/65/157 
f 64/64/158 77/79/158 88/92/158 
f 88/92/159 87/91/159 64/64/159 
f 77/79/160 99/159/160 89/93/160 
f 89/93/161 88/92/161 77/79/161 
f 99/156/162 100/161/162 90/173/162 
f 90/173/162 89/174/162 99/156/162 
# 196 faces

