# 3ds Max Wavefront OBJ Exporter v0.97b - (c)2007 guruware
# File Created: 24.07.2013 19:29:36

mtllib Mine_model_final.mtl

#
# object Cylinder001
#

v  16.1047 0.0000 0.0000
v  8.0523 0.0000 -13.9471
v  10.0000 2.8226 -17.3205
v  20.0000 2.8226 -0.0000
v  -8.0523 0.0000 -13.9471
v  -10.0000 2.8226 -17.3205
v  -16.1047 0.0000 0.0000
v  -20.0000 2.8226 0.0000
v  -8.0523 0.0000 13.9471
v  -10.0000 2.8226 17.3205
v  8.0523 0.0000 13.9471
v  10.0000 2.8226 17.3205
v  20.5887 3.9994 -0.0000
v  10.2943 3.9994 -17.8303
v  10.2943 5.7460 -17.8303
v  20.5887 5.7460 0.0000
v  -10.2943 3.9994 -17.8303
v  -10.2943 5.7460 -17.8303
v  -20.5887 3.9994 0.0000
v  -20.5887 5.7460 0.0000
v  -10.2943 3.9994 17.8303
v  -10.2943 5.7460 17.8303
v  10.2943 3.9994 17.8303
v  10.2943 5.7460 17.8303
v  14.8058 9.8043 -3.8405
v  10.7289 9.8043 -10.9019
v  9.4529 11.4825 -8.6918
v  12.2537 11.4825 -3.8405
v  4.0769 9.8043 -14.7424
v  -4.0769 9.8043 -14.7424
v  -2.8009 11.4825 -12.5323
v  2.8009 11.4825 -12.5323
v  -10.7289 9.8043 -10.9019
v  -14.8058 9.8043 -3.8405
v  -12.2537 11.4825 -3.8405
v  -9.4529 11.4825 -8.6918
v  -14.8058 9.8043 3.8405
v  -10.7289 9.8043 10.9019
v  -9.4529 11.4825 8.6918
v  -12.2537 11.4825 3.8405
v  -4.0769 9.8043 14.7424
v  4.0769 9.8043 14.7424
v  2.8009 11.4825 12.5323
v  -2.8009 11.4825 12.5323
v  10.7289 9.8043 10.9019
v  14.8058 9.8043 3.8405
v  12.2537 11.4825 3.8405
v  9.4529 11.4825 8.6918
v  3.7192 13.3536 -6.4418
v  -3.7192 13.3536 -6.4418
v  -7.4383 13.3536 0.0000
v  -3.7192 13.3536 6.4418
v  3.7192 13.3536 6.4418
v  7.4383 13.3536 0.0000
v  20.0000 6.9229 -0.0000
v  10.0000 6.9229 -17.3205
v  10.0905 7.5276 -15.5709
v  18.5301 7.5276 -0.9532
v  5.3228 12.5410 -9.2194
v  6.2435 12.5873 -8.9076
v  10.6456 12.5410 0.0000
v  10.8360 12.5873 -0.9532
v  -10.0000 6.9229 -17.3205
v  -8.4395 7.5276 -16.5241
v  8.4395 7.5276 -16.5241
v  -5.3228 12.5410 -9.2194
v  -4.5925 12.5873 -9.8608
v  4.5925 12.5873 -9.8608
v  -20.0000 6.9229 0.0000
v  -18.5301 7.5276 -0.9532
v  -10.0905 7.5276 -15.5709
v  -10.6456 12.5410 0.0000
v  -10.8360 12.5873 -0.9532
v  -6.2435 12.5873 -8.9076
v  -10.0000 6.9229 17.3205
v  -10.0905 7.5276 15.5709
v  -18.5301 7.5276 0.9532
v  -5.3228 12.5410 9.2194
v  -6.2435 12.5873 8.9076
v  -10.8360 12.5873 0.9532
v  10.0000 6.9229 17.3205
v  8.4395 7.5276 16.5241
v  -8.4395 7.5276 16.5241
v  5.3228 12.5410 9.2194
v  4.5925 12.5873 9.8608
v  -4.5925 12.5873 9.8608
v  18.5301 7.5276 0.9532
v  10.0905 7.5276 15.5709
v  10.8360 12.5873 0.9532
v  6.2435 12.5873 8.9076
v  11.0847 9.7955 -13.2284
v  16.9985 9.7955 -2.9854
v  8.7262 12.8976 -9.1433
v  12.2814 12.8976 -2.9854
v  -5.9138 9.7955 -16.2139
v  5.9138 9.7955 -16.2139
v  -3.5552 12.8976 -12.1287
v  3.5552 12.8976 -12.1287
v  -16.9985 9.7955 -2.9854
v  -11.0847 9.7955 -13.2284
v  -12.2814 12.8976 -2.9854
v  -8.7262 12.8976 -9.1433
v  -11.0847 9.7955 13.2284
v  -16.9985 9.7955 2.9854
v  -8.7262 12.8976 9.1433
v  -12.2814 12.8976 2.9854
v  5.9138 9.7955 16.2139
v  -5.9138 9.7955 16.2139
v  3.5552 12.8976 12.1287
v  -3.5552 12.8976 12.1287
v  16.9985 9.7955 2.9854
v  11.0847 9.7955 13.2284
v  12.2814 12.8976 2.9854
v  8.7262 12.8976 9.1433
v  4.3988 14.2365 -7.6190
v  8.7976 14.2365 0.0000
v  -4.3988 14.2365 -7.6190
v  -8.7976 14.2365 0.0000
v  -4.3988 14.2365 7.6190
v  4.3988 14.2365 7.6190
v  10.7358 3.3591 -18.5949
v  21.4716 3.3591 0.0000
v  -10.7358 3.3591 -18.5949
v  -21.4716 3.3591 0.0000
v  -10.7358 3.3591 18.5949
v  10.7358 3.3591 18.5949
v  21.4716 6.5037 0.0000
v  10.7358 6.5037 -18.5949
v  10.7358 6.5037 18.5949
v  -10.7358 6.5037 18.5949
v  -21.4716 6.5037 0.0000
v  -10.7358 6.5037 -18.5949
# 132 vertices

vn 0.5868 -0.8098 0.0000
vn 0.2934 -0.8098 -0.5082
vn -0.2934 -0.8098 -0.5082
vn -0.5868 -0.8098 0.0000
vn -0.2934 -0.8098 0.5082
vn 0.2934 -0.8098 0.5082
vn 1.0000 -0.0000 -0.0000
vn 0.5000 -0.0000 -0.8660
vn -0.5000 0.0000 -0.8660
vn -0.5000 -0.0000 -0.8660
vn -1.0000 -0.0000 0.0000
vn -0.5000 -0.0000 0.8660
vn 0.5000 -0.0000 0.8660
vn 0.5237 0.7964 -0.3024
vn -0.0000 0.7964 -0.6048
vn 0.0000 0.7964 -0.6048
vn -0.5237 0.7964 -0.3024
vn -0.5237 0.7964 0.3024
vn 0.0000 0.7964 0.6048
vn 0.5237 0.7964 0.3024
vn 0.0000 -1.0000 -0.0000
vn 0.0000 1.0000 -0.0000
vn 0.1309 0.8485 -0.5128
vn -0.0625 0.9974 0.0361
vn 0.4995 0.8317 -0.2426
vn 0.5433 0.8262 0.1487
vn -0.3787 0.8485 -0.3698
vn 0.0000 0.9974 0.0721
vn 0.0396 0.8317 -0.5539
vn 0.4004 0.8262 -0.3962
vn -0.5096 0.8485 0.1430
vn 0.0625 0.9974 0.0361
vn -0.4599 0.8317 -0.3113
vn -0.1429 0.8262 -0.5449
vn -0.1309 0.8485 0.5128
vn 0.0625 0.9974 -0.0361
vn -0.4995 0.8317 0.2426
vn -0.5433 0.8262 -0.1487
vn 0.3787 0.8485 0.3698
vn 0.0000 0.9974 -0.0721
vn -0.0396 0.8317 0.5539
vn -0.4004 0.8262 0.3962
vn 0.5096 0.8485 -0.1430
vn -0.0625 0.9974 -0.0361
vn 0.4599 0.8317 0.3113
vn 0.1429 0.8262 0.5449
vn 0.8580 0.1355 -0.4954
vn -0.1546 0.7418 -0.6526
vn -0.1174 0.9908 0.0678
vn 0.4878 0.7418 0.4602
vn -0.0000 0.1355 -0.9908
vn -0.6424 0.7418 -0.1924
vn 0.0000 0.9908 0.1355
vn 0.6424 0.7418 -0.1924
vn -0.8580 0.1355 -0.4954
vn -0.4878 0.7418 0.4602
vn 0.1174 0.9908 0.0678
vn 0.1546 0.7418 -0.6526
vn -0.8580 0.1355 0.4954
vn 0.1546 0.7418 0.6526
vn 0.1174 0.9908 -0.0678
vn -0.4878 0.7418 -0.4602
vn 0.0000 0.1355 0.9908
vn 0.6424 0.7418 0.1924
vn 0.0000 0.9908 -0.1355
vn -0.6424 0.7418 0.1924
vn 0.8580 0.1355 0.4954
vn 0.4878 0.7418 -0.4602
vn -0.1174 0.9908 -0.0678
vn -0.1546 0.7418 0.6526
vn 0.6298 0.6864 -0.3636
vn -0.0000 0.6864 -0.7272
vn -0.6298 0.6864 -0.3636
vn -0.6298 0.6864 0.3636
vn 0.0000 0.6864 0.7272
vn 0.6298 0.6864 0.3636
vn 0.3360 -0.9217 -0.1940
vn -0.0000 -0.9217 -0.3880
vn -0.3360 -0.9217 -0.1940
vn -0.3360 -0.9217 0.1940
vn 0.0000 -0.9217 0.3880
vn 0.3360 -0.9217 0.1940
vn 0.2706 0.9499 -0.1562
vn 0.2706 0.9499 0.1562
vn 0.0000 0.9499 0.3125
vn -0.2706 0.9499 0.1562
vn -0.2706 0.9499 -0.1562
vn -0.0000 0.9499 -0.3125
vn 0.5561 0.7666 -0.3210
vn -0.0000 0.7666 -0.6421
vn -0.5561 0.7666 -0.3210
vn -0.5561 0.7666 0.3210
vn 0.0000 0.7666 0.6421
vn 0.5561 0.7666 0.3210
vn 0.6096 -0.7103 -0.3519
vn 0.6096 -0.7103 0.3519
vn 0.0000 -0.7103 0.7039
vn -0.6096 -0.7103 0.3519
vn -0.6096 -0.7103 -0.3519
vn -0.0000 -0.7103 -0.7039
vn 0.0052 1.0000 -0.0030
vn 0.8644 0.4855 0.1304
vn 0.8328 0.2743 -0.4808
vn 0.3193 0.4855 -0.8138
vn -0.0000 1.0000 -0.0060
vn 0.5451 0.4855 -0.6834
vn 0.0000 0.2743 -0.9616
vn -0.5451 0.4855 -0.6834
vn -0.0052 1.0000 -0.0030
vn -0.3193 0.4855 -0.8138
vn -0.8328 0.2743 -0.4808
vn -0.8644 0.4855 0.1304
vn -0.0052 1.0000 0.0030
vn -0.8644 0.4855 -0.1304
vn -0.8328 0.2743 0.4808
vn -0.3193 0.4855 0.8138
vn 0.0000 1.0000 0.0060
vn -0.5451 0.4855 0.6834
vn 0.0000 0.2743 0.9616
vn 0.5451 0.4855 0.6834
vn 0.0052 1.0000 0.0030
vn 0.3193 0.4855 0.8138
vn 0.8328 0.2743 0.4808
vn 0.8644 0.4855 -0.1304
vn -0.5196 0.8000 0.3000
vn 0.0000 0.8000 0.6000
vn 0.5196 0.8000 0.3000
vn 0.5196 0.8000 -0.3000
vn 0.0000 0.8000 -0.6000
vn -0.5196 0.8000 -0.3000
# 130 vertex normals

vt 0.6695 0.3764 0.0000
vt 0.6671 0.1896 0.0000
vt 0.7179 0.1667 0.0000
vt 0.7206 0.3984 0.0000
vt 0.5281 0.0651 0.0000
vt 0.5455 0.0119 0.0000
vt 0.3592 0.9217 0.0000
vt 0.5456 0.9272 0.0000
vt 0.5663 0.9788 0.0000
vt 0.3351 0.9719 0.0000
vt 0.6756 0.7930 -0.0000
vt 0.7277 0.8126 -0.0000
vt 0.6647 0.6067 0.0000
vt 0.7145 0.5813 0.0000
vt 0.5335 0.5038 0.0000
vt 0.5517 0.5564 0.0000
vt 0.7932 0.5019 0.0000
vt 0.7932 0.0321 0.0000
vt 0.8392 0.0321 0.0000
vt 0.8392 0.5019 0.0000
vt 0.9150 0.9718 0.0000
vt 0.9611 0.9718 0.0000
vt 0.9150 0.5019 0.0000
vt 0.9611 0.5019 0.0000
vt 0.9150 0.0321 0.0000
vt 0.9611 0.0321 0.0000
vt 0.7932 0.9718 0.0000
vt 0.8392 0.9718 0.0000
vt 0.0547 0.3518 0.2862
vt 0.0583 0.2511 0.2862
vt 0.0904 0.2684 0.2862
vt 0.0881 0.3368 0.2862
vt 0.1019 0.1504 0.2862
vt 0.1792 0.0857 0.2862
vt 0.1875 0.1214 0.2862
vt 0.1348 0.1647 0.2862
vt 0.3927 0.0949 0.2860
vt 0.4711 0.1583 0.2860
vt 0.4389 0.1727 0.2860
vt 0.3851 0.1310 0.2860
vt 0.5169 0.2582 0.2860
vt 0.5188 0.3590 0.2860
vt 0.4858 0.3435 0.2860
vt 0.4844 0.2751 0.2860
vt 0.4813 0.4619 0.2860
vt 0.4077 0.5307 0.2860
vt 0.3975 0.4956 0.2860
vt 0.4476 0.4494 0.2860
vt 0.1698 0.5218 0.2862
vt 0.0946 0.4544 0.2862
vt 0.1276 0.4417 0.2862
vt 0.1791 0.4861 0.2862
vt 0.0042 0.8356 0.0000
vt 0.0975 0.6740 0.0000
vt 0.2841 0.6740 0.0000
vt 0.3774 0.8356 0.0000
vt 0.2841 0.9972 0.0000
vt 0.0975 0.9972 0.0000
vt 0.4149 0.7289 0.0000
vt 0.4592 0.6546 0.0000
vt 0.5460 0.6565 0.0000
vt 0.5876 0.7335 0.0000
vt 0.5426 0.8097 0.0000
vt 0.4548 0.8065 0.0000
vt 0.0072 0.4293 0.2862
vt 0.0146 0.1725 0.2862
vt 0.0262 0.1937 0.2862
vt 0.0190 0.4071 0.2862
vt 0.1399 0.2334 0.2862
vt 0.1318 0.2446 0.2862
vt 0.1344 0.3735 0.2862
vt 0.1276 0.3627 0.2862
vt 0.2078 0.0096 0.2862
vt 0.2004 0.0279 0.2862
vt 0.0375 0.1665 0.2862
vt 0.2399 0.1414 0.2862
vt 0.2299 0.1405 0.2862
vt 0.1423 0.2153 0.2862
vt 0.3582 0.0214 0.2860
vt 0.5602 0.1788 0.2860
vt 0.5367 0.1725 0.2860
vt 0.3686 0.0389 0.2860
vt 0.4360 0.2410 0.2860
vt 0.4335 0.2233 0.2860
vt 0.3354 0.1536 0.2860
vt 0.3445 0.1520 0.2860
vt 0.5668 0.4352 0.2860
vt 0.5540 0.4146 0.2860
vt 0.5497 0.2013 0.2860
vt 0.4383 0.3812 0.2860
vt 0.4458 0.3696 0.2860
vt 0.4435 0.2514 0.2860
vt 0.3828 0.6083 0.2860
vt 0.3893 0.5896 0.2860
vt 0.5445 0.4424 0.2860
vt 0.3438 0.4786 0.2860
vt 0.3540 0.4789 0.2860
vt 0.4372 0.3994 0.2860
vt 0.2010 0.5967 0.2862
vt 0.0301 0.4368 0.2862
vt 0.1914 0.5788 0.2862
vt 0.1358 0.3914 0.2862
vt 0.2304 0.4658 0.2862
vt 0.2209 0.4671 0.2862
vt 0.0457 0.2276 0.2862
vt 0.0394 0.3740 0.2862
vt 0.1071 0.2592 0.2862
vt 0.1039 0.3471 0.2862
vt 0.1878 0.0617 0.2862
vt 0.0754 0.1562 0.2862
vt 0.2045 0.1289 0.2862
vt 0.1376 0.1844 0.2862
vt 0.4978 0.1639 0.2860
vt 0.3838 0.0711 0.2860
vt 0.4368 0.1926 0.2860
vt 0.3686 0.1390 0.2860
vt 0.5327 0.3818 0.2860
vt 0.5310 0.2353 0.2860
vt 0.4697 0.3536 0.2860
vt 0.4681 0.2657 0.2860
vt 0.4004 0.5552 0.2860
vt 0.5073 0.4547 0.2860
vt 0.3800 0.4891 0.2860
vt 0.4437 0.4300 0.2860
vt 0.0683 0.4475 0.2862
vt 0.1775 0.5459 0.2862
vt 0.1307 0.4219 0.2862
vt 0.1961 0.4789 0.2862
vt 0.1701 0.2473 -0.2862
vt 0.1650 0.3592 -0.2862
vt 0.2515 0.1710 -0.2862
vt 0.4062 0.2568 -0.2860
vt 0.3263 0.1809 -0.2860
vt 0.4074 0.3689 -0.2860
vt 0.3305 0.4497 -0.2860
vt 0.2408 0.4392 -0.2862
vt 0.7622 0.5019 0.0000
vt 0.7622 0.0455 0.0000
vt 0.7763 0.0119 0.0000
vt 0.7763 0.5019 0.0000
vt 0.8840 0.9583 0.0000
vt 0.8840 0.5019 0.0000
vt 0.8982 0.5019 0.0000
vt 0.8982 0.9919 0.0000
vt 0.8840 0.0455 0.0000
vt 0.8982 0.0119 0.0000
vt 0.7622 0.9583 0.0000
vt 0.7763 0.9919 0.0000
vt 0.8702 0.0455 0.0000
vt 0.8702 0.5019 0.0000
vt 0.8592 0.5019 0.0000
vt 0.8592 0.0119 0.0000
vt 0.8702 0.9583 0.0000
vt 0.8592 0.9919 0.0000
vt 0.9921 0.0455 0.0000
vt 0.9921 0.5019 0.0000
vt 0.9810 0.5019 0.0000
vt 0.9810 0.0119 0.0000
vt 0.9921 0.9583 0.0000
vt 0.9810 0.9919 0.0000
vt 0.4476 0.8230 0.0000
vt 0.3958 0.7312 0.0000
vt 0.4483 0.6400 0.0000
vt 0.5534 0.6399 0.0000
vt 0.6060 0.7315 0.0000
vt 0.5534 0.8233 0.0000
# 166 texture coords

g Cylinder001
usemtl Material__26
s 8
f 1/1/1 2/2/2 3/3/2 
f 3/3/2 4/4/1 1/1/1 
f 2/2/2 5/5/3 6/6/3 
f 6/6/3 3/3/2 2/2/2 
f 5/7/3 7/8/4 8/9/4 
f 8/9/4 6/10/3 5/7/3 
f 7/8/4 9/11/5 10/12/5 
f 10/12/5 8/9/4 7/8/4 
f 9/11/5 11/13/6 12/14/6 
f 12/14/6 10/12/5 9/11/5 
f 11/15/6 1/1/1 4/4/1 
f 4/4/1 12/16/6 11/15/6 
f 13/17/7 14/18/8 15/19/8 
f 15/19/8 16/20/7 13/17/7 
f 14/21/8 17/21/9 18/22/10 
f 18/22/10 15/22/8 14/21/8 
f 17/21/9 19/23/11 20/24/11 
f 20/24/11 18/22/10 17/21/9 
f 19/23/11 21/25/12 22/26/12 
f 22/26/12 20/24/11 19/23/11 
f 21/27/12 23/27/13 24/28/13 
f 24/28/13 22/28/12 21/27/12 
f 23/27/13 13/17/7 16/20/7 
f 16/20/7 24/28/13 23/27/13 
f 25/29/14 26/30/14 27/31/14 
f 27/31/14 28/32/14 25/29/14 
f 29/33/15 30/34/15 31/35/15 
f 31/35/15 32/36/16 29/33/15 
f 33/37/17 34/38/17 35/39/17 
f 35/39/17 36/40/17 33/37/17 
f 37/41/18 38/42/18 39/43/18 
f 39/43/18 40/44/18 37/41/18 
f 41/45/19 42/46/19 43/47/19 
f 43/47/19 44/48/19 41/45/19 
f 45/49/20 46/50/20 47/51/20 
f 47/51/20 48/52/20 45/49/20 
s 1
f 9/53/21 7/54/21 5/55/21 
f 5/55/21 2/56/21 1/57/21 
f 9/53/21 5/55/21 1/57/21 
f 11/58/21 9/53/21 1/57/21 
f 49/59/22 50/60/22 51/61/22 
f 51/61/22 52/62/22 53/63/22 
f 49/59/22 51/61/22 53/63/22 
f 54/64/22 49/59/22 53/63/22 
s off
f 55/65/14 56/66/14 57/67/14 
f 57/67/14 58/68/14 55/65/14 
f 56/66/23 59/69/23 60/70/23 
f 60/70/14 57/67/14 56/66/14 
f 59/69/24 61/71/24 62/72/24 
f 62/72/24 60/70/24 59/69/24 
f 61/71/25 55/65/25 58/68/25 
f 58/68/26 62/72/26 61/71/26 
f 56/66/15 63/73/15 64/74/15 
f 64/74/15 65/75/15 56/66/15 
f 63/73/27 66/76/27 67/77/27 
f 67/77/15 64/74/15 63/73/15 
f 66/76/28 59/69/28 68/78/28 
f 68/78/28 67/77/28 66/76/28 
f 59/69/29 56/66/29 65/75/29 
f 65/75/30 68/78/30 59/69/30 
f 63/79/17 69/80/17 70/81/17 
f 70/81/17 71/82/17 63/79/17 
f 69/80/31 72/83/31 73/84/31 
f 73/84/17 70/81/17 69/80/17 
f 72/83/32 66/85/32 74/86/32 
f 74/86/32 73/84/32 72/83/32 
f 66/85/33 63/79/33 71/82/33 
f 71/82/34 74/86/34 66/85/34 
f 69/80/18 75/87/18 76/88/18 
f 76/88/18 77/89/18 69/80/18 
f 75/87/35 78/90/35 79/91/35 
f 79/91/18 76/88/18 75/87/18 
f 78/90/36 72/83/36 80/92/36 
f 80/92/36 79/91/36 78/90/36 
f 72/83/37 69/80/37 77/89/37 
f 77/89/38 80/92/38 72/83/38 
f 75/87/19 81/93/19 82/94/19 
f 82/94/19 83/95/19 75/87/19 
f 81/93/39 84/96/39 85/97/39 
f 85/97/19 82/94/19 81/93/19 
f 84/96/40 78/90/40 86/98/40 
f 86/98/40 85/97/40 84/96/40 
f 78/90/41 75/87/41 83/95/41 
f 83/95/42 86/98/42 78/90/42 
f 81/99/20 55/65/20 87/100/20 
f 87/100/20 88/101/20 81/99/20 
f 55/65/43 61/71/43 89/102/43 
f 89/102/20 87/100/20 55/65/20 
f 61/71/44 84/103/44 90/104/44 
f 90/104/44 89/102/44 61/71/44 
f 84/103/45 81/99/45 88/101/45 
f 88/101/46 90/104/46 84/103/46 
f 58/68/47 57/67/47 91/105/47 
f 91/105/47 92/106/47 58/68/47 
f 57/67/48 60/70/48 93/107/48 
f 93/107/48 91/105/48 57/67/48 
f 60/70/49 62/72/49 94/108/49 
f 94/108/49 93/107/49 60/70/49 
f 62/72/50 58/68/50 92/106/50 
f 92/106/50 94/108/50 62/72/50 
f 65/75/51 64/74/51 95/109/51 
f 95/109/51 96/110/51 65/75/51 
f 64/74/52 67/77/52 97/111/52 
f 97/111/52 95/109/52 64/74/52 
f 67/77/53 68/78/53 98/112/53 
f 98/112/53 97/111/53 67/77/53 
f 68/78/54 65/75/54 96/110/54 
f 96/110/54 98/112/54 68/78/54 
f 71/82/55 70/81/55 99/113/55 
f 99/113/55 100/114/55 71/82/55 
f 70/81/56 73/84/56 101/115/56 
f 101/115/56 99/113/56 70/81/56 
f 73/84/57 74/86/57 102/116/57 
f 102/116/57 101/115/57 73/84/57 
f 74/86/58 71/82/58 100/114/58 
f 100/114/58 102/116/58 74/86/58 
f 77/89/59 76/88/59 103/117/59 
f 103/117/59 104/118/59 77/89/59 
f 76/88/60 79/91/60 105/119/60 
f 105/119/60 103/117/60 76/88/60 
f 79/91/61 80/92/61 106/120/61 
f 106/120/61 105/119/61 79/91/61 
f 80/92/62 77/89/62 104/118/62 
f 104/118/62 106/120/62 80/92/62 
f 83/95/63 82/94/63 107/121/63 
f 107/121/63 108/122/63 83/95/63 
f 82/94/64 85/97/64 109/123/64 
f 109/123/64 107/121/64 82/94/64 
f 85/97/65 86/98/65 110/124/65 
f 110/124/65 109/123/65 85/97/65 
f 86/98/66 83/95/66 108/122/66 
f 108/122/66 110/124/66 86/98/66 
f 88/101/67 87/100/67 111/125/67 
f 111/125/67 112/126/67 88/101/67 
f 87/100/68 89/102/68 113/127/68 
f 113/127/68 111/125/68 87/100/68 
f 89/102/69 90/104/69 114/128/69 
f 114/128/69 113/127/69 89/102/69 
f 90/104/70 88/101/70 112/126/70 
f 112/126/70 114/128/70 90/104/70 
f 61/71/71 59/69/71 115/129/71 
f 115/129/71 116/130/71 61/71/71 
f 59/69/72 66/76/72 117/131/72 
f 117/131/72 115/129/72 59/69/72 
f 66/85/73 72/83/73 118/132/73 
f 118/132/73 117/133/73 66/85/73 
f 72/83/74 78/90/74 119/134/74 
f 119/134/74 118/132/74 72/83/74 
f 78/90/75 84/96/75 120/135/75 
f 120/135/75 119/134/75 78/90/75 
f 84/103/76 61/71/76 116/130/76 
f 116/130/76 120/136/76 84/103/76 
f 4/137/77 3/138/77 121/139/77 
f 121/139/77 122/140/77 4/137/77 
f 3/138/78 6/138/78 123/139/78 
f 123/139/78 121/139/78 3/138/78 
f 6/141/79 8/142/79 124/143/79 
f 124/143/79 123/144/79 6/141/79 
f 8/142/80 10/145/80 125/146/80 
f 125/146/80 124/143/80 8/142/80 
f 10/147/81 12/147/81 126/148/81 
f 126/148/81 125/148/81 10/147/81 
f 12/147/82 4/137/82 122/140/82 
f 122/140/82 126/148/82 12/147/82 
f 56/149/83 55/150/83 127/151/83 
f 127/151/83 128/152/83 56/149/83 
f 55/150/84 81/153/84 129/154/84 
f 129/154/84 127/151/84 55/150/84 
f 81/153/85 75/153/85 130/154/85 
f 130/154/85 129/154/85 81/153/85 
f 75/155/86 69/156/86 131/157/86 
f 131/157/86 130/158/86 75/155/86 
f 69/156/87 63/159/87 132/160/87 
f 132/160/87 131/157/87 69/156/87 
f 63/149/88 56/149/88 128/152/88 
f 128/152/88 132/152/88 63/149/88 
f 122/140/89 121/139/89 14/18/89 
f 14/18/89 13/17/89 122/140/89 
f 121/139/90 123/139/90 17/18/90 
f 17/18/90 14/18/90 121/139/90 
f 123/144/91 124/143/91 19/23/91 
f 19/23/91 17/21/91 123/144/91 
f 124/143/92 125/146/92 21/25/92 
f 21/25/92 19/23/92 124/143/92 
f 125/148/93 126/148/93 23/27/93 
f 23/27/93 21/27/93 125/148/93 
f 126/148/94 122/140/94 13/17/94 
f 13/17/94 23/27/94 126/148/94 
f 128/152/95 127/151/95 16/20/95 
f 16/20/95 15/19/95 128/152/95 
f 127/151/96 129/154/96 24/28/96 
f 24/28/96 16/20/96 127/151/96 
f 129/154/97 130/154/97 22/28/97 
f 22/28/97 24/28/97 129/154/97 
f 130/158/98 131/157/98 20/24/98 
f 20/24/98 22/26/98 130/158/98 
f 131/157/99 132/160/99 18/22/99 
f 18/22/99 20/24/99 131/157/99 
f 132/160/100 128/160/100 15/22/100 
f 15/22/100 18/22/100 132/160/100 
f 92/106/101 91/105/101 26/30/101 
f 26/30/101 25/29/101 92/106/101 
f 91/105/102 93/107/102 27/31/102 
f 27/31/102 26/30/102 91/105/102 
f 93/107/103 94/108/103 28/32/103 
f 28/32/103 27/31/103 93/107/103 
f 94/108/104 92/106/104 25/29/104 
f 25/29/104 28/32/104 94/108/104 
f 96/110/105 95/109/105 30/34/105 
f 30/34/105 29/33/105 96/110/105 
f 95/109/106 97/111/106 31/35/106 
f 31/35/106 30/34/106 95/109/106 
f 97/111/107 98/112/107 32/36/107 
f 32/36/107 31/35/107 97/111/107 
f 98/112/108 96/110/108 29/33/108 
f 29/33/108 32/36/108 98/112/108 
f 100/114/109 99/113/109 34/38/109 
f 34/38/109 33/37/109 100/114/109 
f 99/113/110 101/115/110 35/39/110 
f 35/39/110 34/38/110 99/113/110 
f 101/115/111 102/116/111 36/40/111 
f 36/40/111 35/39/111 101/115/111 
f 102/116/112 100/114/112 33/37/112 
f 33/37/112 36/40/112 102/116/112 
f 104/118/113 103/117/113 38/42/113 
f 38/42/113 37/41/113 104/118/113 
f 103/117/114 105/119/114 39/43/114 
f 39/43/114 38/42/114 103/117/114 
f 105/119/115 106/120/115 40/44/115 
f 40/44/115 39/43/115 105/119/115 
f 106/120/116 104/118/116 37/41/116 
f 37/41/116 40/44/116 106/120/116 
f 108/122/117 107/121/117 42/46/117 
f 42/46/117 41/45/117 108/122/117 
f 107/121/118 109/123/118 43/47/118 
f 43/47/118 42/46/118 107/121/118 
f 109/123/119 110/124/119 44/48/119 
f 44/48/119 43/47/119 109/123/119 
f 110/124/120 108/122/120 41/45/120 
f 41/45/120 44/48/120 110/124/120 
f 112/126/121 111/125/121 46/50/121 
f 46/50/121 45/49/121 112/126/121 
f 111/125/122 113/127/122 47/51/122 
f 47/51/122 46/50/122 111/125/122 
f 113/127/123 114/128/123 48/52/123 
f 48/52/123 47/51/123 113/127/123 
f 114/128/124 112/126/124 45/49/124 
f 45/49/124 48/52/124 114/128/124 
f 116/161/125 115/162/125 49/59/125 
f 49/59/125 54/64/125 116/161/125 
f 115/162/126 117/163/126 50/60/126 
f 50/60/126 49/59/126 115/162/126 
f 117/163/127 118/164/127 51/61/127 
f 51/61/127 50/60/127 117/163/127 
f 118/164/128 119/165/128 52/62/128 
f 52/62/128 51/61/128 118/164/128 
f 119/165/129 120/166/129 53/63/129 
f 53/63/129 52/62/129 119/165/129 
f 120/166/130 116/161/130 54/64/130 
f 54/64/130 53/63/130 120/166/130 
# 260 faces

